<?xml version="1.0" encoding="UTF-8"?>
<svg id="Layer_1" xmlns="http://www.w3.org/2000/svg" version="1.1" viewBox="0 0 1603.2 531.27">
  <!-- Generator: Adobe Illustrator 29.1.0, SVG Export Plug-In . SVG Version: 2.1.0 Build 142)  -->
  <defs>
    <style>
      .st0 {
        isolation: isolate;
      }

      .st1 {
        fill: #fff;
      }
    </style>
  </defs>
  <g>
    <polygon class="st1" points="415.35 76.34 415.35 309.38 410.4 314.33 371.71 314.33 366.76 309.38 366.76 214.13 362.4 209.76 279.7 209.76 275.34 214.13 275.34 309.38 270.39 314.33 231.71 314.33 226.76 309.38 226.76 76.34 231.71 71.39 270.39 71.39 275.34 76.34 275.34 157.24 279.7 161.6 362.4 161.6 366.76 157.24 366.76 76.34 371.71 71.39 410.4 71.39 415.35 76.34"/>
    <path class="st1" d="M458.77,78.22l6.33-6.33h65.04c17.28,0,33.71,2.17,49.26,6.49,15.56,4.33,29.13,11.34,40.72,21.02,11.59,9.69,20.79,22.27,27.6,37.76,6.81,15.5,10.22,34.29,10.22,56.38,0,19.6-3.31,36.85-9.91,51.77-6.61,14.92-15.51,27.46-26.69,37.59-11.19,10.14-24.1,17.83-38.74,23.07-14.64,5.24-30,7.86-46.06,7.86h-71.45l-6.33-6.33V78.22h.01ZM506.35,258.29l6.33,6.33h18.37c10.98,0,21.2-1.25,30.66-3.76,9.46-2.5,17.64-6.66,24.55-12.47s12.35-13.44,16.32-22.9c3.97-9.45,5.95-21.02,5.95-34.69,0-11.84-1.98-22.15-5.95-30.93-3.97-8.77-9.3-16-16.01-21.7-6.71-5.69-14.59-9.96-23.64-12.81-9.05-2.85-18.56-4.27-28.52-4.27h-21.73l-6.33,6.33v130.86h0Z"/>
  </g>
  <g>
    <path class="st1" d="M126.76,367.13h-50.07l-2.58-2.53v-21.52c0-7.31-1.13-13.43-3.36-18.18s-5.1-8.57-8.55-11.33c-3.44-2.76-7.35-4.7-11.64-5.79-4.26-1.07-8.43-1.62-12.38-1.62s-8.11.55-12.38,1.62c-4.29,1.09-8.2,3.03-11.64,5.79s-6.32,6.57-8.55,11.33c-2.23,4.76-3.36,10.87-3.36,18.18v37.34l3.17,3.12h121.34l3.17-3.12v-10.17s-3.17-3.12-3.17-3.12ZM20.86,367.13l-2.58-2.53v-17.18c0-2.96.27-5.92.8-8.82.52-2.86,1.49-5.45,2.89-7.69,1.37-2.21,3.38-4.01,5.97-5.35,2.61-1.35,6.05-2.03,10.24-2.03s7.63.68,10.24,2.03c2.59,1.34,4.6,3.14,5.98,5.35,1.39,2.24,2.36,4.83,2.88,7.69.53,2.9.8,5.86.8,8.82v17.18l-2.58,2.53H20.86Z"/>
    <path class="st1" d="M133.15,246.01c0,6.25-1.22,12.15-3.62,17.54-2.4,5.39-5.87,10.14-10.32,14.12-4.43,3.98-9.75,7.15-15.81,9.41-6.05,2.25-12.88,3.4-20.31,3.4H5.42l-3.17-3.12v-10.17l3.17-3.12h74.99c3.88,0,7.97-.48,12.14-1.43,4.16-.94,8.05-2.54,11.57-4.75,3.5-2.19,6.39-5.11,8.61-8.66,2.2-3.54,3.32-7.98,3.32-13.22s-1.12-9.67-3.32-13.21c-2.22-3.55-5.11-6.47-8.61-8.67-3.52-2.2-7.41-3.8-11.57-4.74-4.17-.95-8.26-1.44-12.14-1.44H5.42l-3.17-3.11v-10.17l3.17-3.12h77.67c7.42,0,14.26,1.14,20.31,3.4s11.37,5.42,15.81,9.4c4.45,3.99,7.92,8.74,10.32,14.13,2.4,5.39,3.62,11.29,3.62,17.53h0Z"/>
    <path class="st1" d="M75.5,141.95l52.63-27.23.12-.06,1.68-2.74v-13.13l-4.78-2.74-49.99,27.89-3.76-1.64c-.68-2.74-1.75-5.34-3.18-7.71-2.11-3.51-4.73-6.52-7.81-8.96-3.07-2.43-6.55-4.32-10.35-5.62-7.45-2.54-15.58-2.52-24.26-.33-4.29,1.09-8.2,3.03-11.64,5.79-3.44,2.76-6.32,6.57-8.55,11.33s-3.36,10.87-3.36,18.18v37.34l3.17,3.12h121.34l3.17-3.12v-10.17l-3.17-3.12h-50.07l-2.58-2.53v-12.29l1.39-2.26h0ZM20.86,159.03l-2.58-2.53v-17.18c0-2.96.27-5.92.8-8.82.52-2.86,1.49-5.45,2.89-7.69,1.37-2.21,3.38-4.01,5.97-5.35,2.61-1.35,6.05-2.03,10.24-2.03s7.64.68,10.24,2.03c2.59,1.34,4.6,3.14,5.98,5.35,1.39,2.24,2.36,4.83,2.88,7.69.53,2.9.8,5.86.8,8.82v17.18l-2.58,2.53H20.86Z"/>
    <polygon class="st1" points="129.93 3.3 129.93 74.29 126.76 77.4 5.42 77.4 2.25 74.29 2.25 6.19 5.42 3.08 16.19 3.08 19.36 6.19 19.36 58.47 21.93 61 53.53 61 56.11 58.47 56.11 10.2 59.28 7.09 70.05 7.09 73.21 10.2 73.21 58.47 75.79 61 110.25 61 112.83 58.47 112.83 3.3 116 .19 126.76 .19 129.93 3.3"/>
  </g>
  <polygon class="st1" points="725.92 0 725.92 383.04 182.41 383.04 182.41 367.46 705.51 367.46 705.51 15.57 182.41 15.57 182.41 0 725.92 0"/>
  <g>
    <path class="st1" d="M893.13,80.47c-1.33-.91-2.3-1.58-3.62-2.48h-19.33c-1.36.92-2.37,1.6-3.73,2.52l-94.38,236.09c1.58,2.34,2.12,3.14,3.71,5.48h20.25c1.76-1.21,3.06-2.11,4.83-3.32l20.61-54.17c1.33-.91,2.3-1.58,3.63-2.5h105.36c1.32.93,2.3,1.6,3.63,2.52l20.63,54.96c1.33.92,2.3,1.59,3.63,2.51h21.93c1.64-2.39,2.22-3.23,3.86-5.63l-91.01-235.98h0ZM878.72,115.22h.63l41.75,114.42c-.13.19-.26.37-.38.54h-85.62c-.09-.13-.18-.26-.28-.4l43.9-114.56Z"/>
    <path class="st1" d="M1133.19,281.56c0,7.34.2,14.21.61,20.63.33,5.2.53,10.02.59,14.47l-2.9,3.07h-16.83l-2.89-3c-.04-3.35-.13-6.71-.29-10.07-.21-4.35-.31-8.82-.31-13.41h-.61c-1.63,3.9-3.93,7.68-6.88,11.34-2.96,3.67-6.47,6.93-10.55,9.8-4.08,2.87-8.66,5.16-13.76,6.88s-10.6,2.58-16.51,2.58c-9.38,0-17.48-1.61-24.3-4.81-6.83-3.21-12.49-7.68-16.97-13.41-4.49-5.72-7.8-12.66-9.94-20.8-2.14-8.13-3.21-17.02-3.21-26.64v-96.32l2.89-3.02h18.05l2.89,3.02v93.57c0,13.52,2.65,24.18,7.95,31.97,5.3,7.79,13.55,11.69,24.76,11.69,7.74,0,14.42-1.49,20.02-4.47s10.19-7.22,13.76-12.72c3.56-5.5,6.21-12.03,7.95-19.59,1.73-7.56,2.6-15.92,2.6-25.09v-75.35l2.89-3.02h18.06l2.89,3.02v119.7l.04-.02h0Z"/>
    <path class="st1" d="M1304.79,292.61h-.63c-4.59,9.16-11.84,16.89-21.74,23.19-9.91,6.3-21.42,9.45-34.56,9.45-10.22,0-19.81-2.12-28.78-6.36s-16.73-10.13-23.3-17.69-11.73-16.49-15.48-26.8-5.63-21.53-5.63-33.67,1.88-23.36,5.63-33.67,8.96-19.24,15.64-26.8c6.67-7.56,14.75-13.45,24.24-17.69s19.96-6.36,31.43-6.36c10.63,0,20.38,2.41,29.24,7.21,8.86,4.81,16.63,11.57,23.3,20.27h.63v-118.76l3.55-3.55h17.4l3.44,3.44v252.74l-3.55,3.55h-17.4l-3.44-3.44v-25.07h.01ZM1304.79,240.73c0-8.47-1.2-16.32-3.6-23.53s-5.89-13.51-10.48-18.9c-4.59-5.38-10.06-9.62-16.42-12.71-6.36-3.09-13.5-4.64-21.42-4.64s-15.07,1.55-21.42,4.64c-6.36,3.09-11.84,7.33-16.42,12.71-4.59,5.38-8.08,11.68-10.48,18.9-2.4,7.21-3.6,15.06-3.6,23.53s1.2,16.32,3.6,23.53c2.39,7.21,5.89,13.52,10.48,18.9,4.58,5.38,10.06,9.62,16.42,12.71s13.5,4.64,21.42,4.64,15.06-1.55,21.42-4.64c6.36-3.09,11.83-7.33,16.42-12.71,4.58-5.38,8.08-11.68,10.48-18.9,2.4-7.21,3.6-15.06,3.6-23.53h0Z"/>
    <path class="st1" d="M1397.85,159.78h-15.86c-1.66,1.69-2.6,2.64-4.27,4.33v151.39c1.67,1.69,2.61,2.64,4.27,4.33h15.86c1.67-1.69,2.6-2.64,4.27-4.33v-151.39c-1.67-1.69-2.6-2.64-4.27-4.33Z"/>
    <path class="st1" d="M1407.75,102.02c0,5.7-1.67,10.38-5,14.02-3.34,3.65-7.62,5.47-12.83,5.47s-9.49-1.82-12.82-5.47c-3.34-3.64-5.01-8.32-5.01-14.02,0-5.24,1.72-9.8,5.16-13.68,3.45-3.87,7.67-5.81,12.67-5.81s9.23,1.94,12.67,5.81c3.44,3.88,5.16,8.44,5.16,13.68h0Z"/>
    <path class="st1" d="M1445.68,239.31c0-12.48,1.93-23.83,5.81-34.04,3.87-10.21,9.17-19.01,15.9-26.38,6.73-7.37,14.77-13.11,24.15-17.19,9.37-4.08,19.56-6.13,30.57-6.13s21.2,2.04,30.57,6.13c9.37,4.09,17.43,9.82,24.15,17.19,6.73,7.38,12.02,16.17,15.9,26.38,3.87,10.21,5.81,21.56,5.81,34.04s-1.94,23.83-5.81,34.04c-3.87,10.21-9.17,19.01-15.9,26.38-6.73,7.38-14.78,13.11-24.15,17.19-9.38,4.08-19.57,6.13-30.57,6.13s-21.2-2.04-30.57-6.13c-9.38-4.09-17.43-9.81-24.15-17.19-6.73-7.37-12.03-16.17-15.9-26.38s-5.81-21.56-5.81-34.04ZM1471.36,239.31c0,8.4,1.17,16.17,3.52,23.32,2.34,7.15,5.76,13.39,10.24,18.72s9.83,9.53,16.05,12.6c6.21,3.06,13.19,4.6,20.94,4.6s14.72-1.53,20.94-4.6c6.21-3.06,11.56-7.26,16.05-12.6,4.48-5.33,7.9-11.57,10.24-18.72s3.52-14.92,3.52-23.32-1.18-16.17-3.52-23.32c-2.35-7.15-5.76-13.39-10.24-18.72-4.49-5.33-9.84-9.53-16.05-12.6-6.22-3.06-13.2-4.6-20.94-4.6s-14.73,1.53-20.94,4.6c-6.22,3.06-11.57,7.27-16.05,12.6-4.49,5.33-7.9,11.57-10.24,18.72-2.35,7.15-3.52,14.93-3.52,23.32Z"/>
  </g>
  <g class="st0">
    <g class="st0">
      <path class="st1" d="M771.96,511.13l14.47-68.21h13.33l-11.99,56.43h20.75c.95,0,1.63-.19,2.05-.57.41-.38.75-1.08,1-2.09l4.09-19.47c.12-.63.19-1.04.19-1.24,0-.57-.18-.95-.52-1.14-.35-.19-.87-.29-1.57-.29h-15.99l2.48-11.5h22.66c5.08,0,7.62,2.12,7.62,6.37,0,.44-.03.92-.1,1.42-.06.51-.16,1.04-.29,1.62l-6.19,29.26c-.7,3.23-1.89,5.61-3.57,7.12-1.68,1.52-4.24,2.28-7.66,2.28h-40.76Z"/>
      <path class="st1" d="M828.03,531.27l2.48-11.5h31.99c1.08,0,1.82-.19,2.24-.57.41-.38.75-1.11,1-2.19l1.33-5.89h-27.42c-2.67,0-4.59-.46-5.76-1.38s-1.76-2.36-1.76-4.32c0-.89.16-2.12.48-3.71l8.19-38.67h13.33l-7.33,34.49c-.06.25-.11.47-.14.67-.03.19-.05.38-.05.57,0,1.01.76,1.52,2.29,1.52h20.47l7.9-37.24h13.42l-12.57,58.81c-.7,3.23-1.87,5.6-3.52,7.12s-4.22,2.28-7.71,2.28h-38.86Z"/>
      <path class="st1" d="M915.9,511.13l2.67-12.54h34.37c1.14,0,1.98-.22,2.52-.67.54-.44.94-1.27,1.19-2.47l1.9-8.93c.06-.25.09-.6.09-1.04,0-1.14-.83-1.71-2.47-1.71h-25.42c-2.6,0-4.49-.55-5.66-1.66-1.17-1.11-1.76-2.67-1.76-4.7,0-.76.09-1.68.29-2.76l3.52-16.62c.82-3.8,2.22-6.62,4.19-8.45,1.97-1.84,5.04-2.76,9.23-2.76h40.08l-2.57,12.26h-34.18c-1.02,0-1.75.22-2.19.67-.44.44-.79,1.23-1.05,2.38l-1.81,8.45c-.06.25-.11.48-.14.67s-.05.38-.05.57c0,.95.7,1.42,2.09,1.42h25.8c2.67,0,4.58.57,5.76,1.71,1.17,1.14,1.76,2.72,1.76,4.75,0,.82-.1,1.71-.29,2.66l-3.71,17.58c-.83,3.8-2.22,6.62-4.19,8.46-1.97,1.84-5.01,2.75-9.14,2.75h-40.84v-.02Z"/>
      <path class="st1" d="M977.96,511.13l13.61-64.32h14.47l-13.61,64.32h-14.47Z"/>
      <path class="st1" d="M1046.5,511.13h-43.22l13.61-64.32h14.47l-10.85,51.3h28.75l-2.76,13.01h0Z"/>
      <path class="st1" d="M1054.31,511.13l10-47.03h14.95l-2.29,10.45h23.7l-2.19,10.26h-23.7l-2.86,13.49h32.84l-2.67,12.83h-47.79.01ZM1065.26,459.35l2.67-12.54h47.79l-2.67,12.54h-47.79Z"/>
      <path class="st1" d="M1159.31,511.13l-24.37-42.18-8.95,42.18h-13.42l13.61-64.32h13.61l21.13,38.38,8.09-38.38h13.52l-13.61,64.32h-9.62.01Z"/>
      <path class="st1" d="M1206.81,511.13h-14.47l10.95-51.68h-15.61l2.67-12.64h45.79l-2.67,12.64h-15.71l-10.95,51.68h0Z"/>
      <path class="st1" d="M1230.04,511.13l2.67-12.54h34.37c1.14,0,1.98-.22,2.52-.67.54-.44.94-1.27,1.19-2.47l1.9-8.93c.06-.25.09-.6.09-1.04,0-1.14-.83-1.71-2.47-1.71h-25.42c-2.6,0-4.49-.55-5.66-1.66-1.17-1.11-1.76-2.67-1.76-4.7,0-.76.09-1.68.29-2.76l3.52-16.62c.82-3.8,2.22-6.62,4.19-8.45,1.97-1.84,5.04-2.76,9.23-2.76h40.08l-2.57,12.26h-34.18c-1.02,0-1.75.22-2.19.67-.44.44-.79,1.23-1.05,2.38l-1.81,8.45c-.06.25-.11.48-.14.67s-.05.38-.05.57c0,.95.7,1.42,2.09,1.42h25.8c2.67,0,4.58.57,5.76,1.71,1.17,1.14,1.76,2.72,1.76,4.75,0,.82-.1,1.71-.29,2.66l-3.71,17.58c-.83,3.8-2.22,6.62-4.19,8.46s-5.01,2.75-9.14,2.75h-40.84v-.02Z"/>
      <path class="st1" d="M1308.67,511.13l5.62-26.5-12.85-37.81h15.14l7.9,25.37,18.66-25.37h14.47l-28.84,37.81-5.62,26.5h-14.48Z"/>
      <path class="st1" d="M1347.8,511.13l2.67-12.54h34.37c1.14,0,1.98-.22,2.52-.67.54-.44.94-1.27,1.19-2.47l1.9-8.93c.06-.25.09-.6.09-1.04,0-1.14-.83-1.71-2.47-1.71h-25.42c-2.6,0-4.49-.55-5.66-1.66-1.17-1.11-1.76-2.67-1.76-4.7,0-.76.09-1.68.29-2.76l3.52-16.62c.82-3.8,2.22-6.62,4.19-8.45,1.97-1.84,5.04-2.76,9.23-2.76h40.08l-2.57,12.26h-34.18c-1.02,0-1.75.22-2.19.67-.44.44-.79,1.23-1.05,2.38l-1.81,8.45c-.06.25-.11.48-.14.67s-.05.38-.05.57c0,.95.7,1.42,2.09,1.42h25.8c2.67,0,4.58.57,5.76,1.71,1.17,1.14,1.76,2.72,1.76,4.75,0,.82-.1,1.71-.29,2.66l-3.71,17.58c-.83,3.8-2.22,6.62-4.19,8.46s-5.01,2.75-9.14,2.75h-40.84v-.02Z"/>
      <path class="st1" d="M1436.8,511.13h-14.47l10.95-51.68h-15.61l2.67-12.64h45.79l-2.67,12.64h-15.71l-10.95,51.68h0Z"/>
      <path class="st1" d="M1459.94,511.13l10-47.03h14.95l-2.29,10.45h23.7l-2.19,10.26h-23.7l-2.86,13.49h32.84l-2.67,12.83h-47.79.01ZM1470.88,459.35l2.67-12.54h47.79l-2.67,12.54h-47.79Z"/>
      <path class="st1" d="M1573.03,511.13l8.28-39.04-23.89,39.04h-11.33l-7.71-39.04-8.28,39.04h-12l13.61-64.32h15.61l8.38,44.75,27.8-44.75h15.04l-13.61,64.32h-11.9Z"/>
    </g>
  </g>
</svg>